<svg xmlns="http://www.w3.org/2000/svg" viewBox="0 0 1120 640" width="1120" height="640">
  <defs>
    <style>
      text { font-family: -apple-system, BlinkMacSystemFont, 'Segoe UI', sans-serif; }
      .t { fill: #0f172a; font-size: 13px; }
      .ts { fill: #64748b; font-size: 11px; }
      .tb { fill: #fff; font-size: 12px; font-weight: 600; }
      .hl { fill: #dc2626; font-size: 10px; font-weight: 600; }
    </style>
  </defs>
  <rect width="1120" height="640" fill="#f8fafc"/>
  <!-- Top shell -->
  <rect x="0" y="0" width="1120" height="48" fill="#0f172a"/>
  <text x="20" y="30" class="tb">RNOSAI · ops-web</text>
  <text x="820" y="30" class="tb" font-size="11" opacity="0.85">rs.pttads.vn</text>
  <!-- Sidebar hint -->
  <rect x="0" y="48" width="180" height="592" fill="#f1f5f9"/>
  <text x="20" y="80" class="ts">CRM</text>
  <rect x="12" y="92" width="156" height="28" rx="4" fill="#dbeafe"/>
  <text x="24" y="111" class="t" font-weight="600">Video SOP</text>
  <text x="20" y="140" class="ts">Content OS</text>
  <text x="20" y="162" class="ts">Service Delivery</text>
  <!-- Main -->
  <rect x="180" y="48" width="940" height="592" fill="#f8fafc"/>
  <text x="200" y="78" class="ts">CRM › Video SOP › #42 › Render</text>
  <text x="200" y="102" class="t" font-size="18" font-weight="700">Motion Render (SC-07)</text>
  <text x="200" y="122" class="ts">/crm/video/42/render</text>
  <!-- Banner -->
  <rect x="200" y="134" width="880" height="36" rx="4" fill="#e2e8f0" stroke="#cbd5e1"/>
  <text x="214" y="157" class="ts">S6 — Motion render · BR-07 final cần take draft passed</text>
  <!-- Body card -->
  <rect x="200" y="182" width="880" height="440" rx="6" fill="#ffffff" stroke="#cbd5e1"/>
  
  <rect x="220" y="205" width="200" height="280" rx="4" fill="#fafafa" stroke="#cbd5e1"/>
  <text x="230" y="228" class="t" font-weight="600">Shots</text>
  <rect x="230" y="240" width="180" height="40" rx="4" fill="#2563eb"/>
  <text x="242" y="265" fill="#fff" font-size="10">#1 · keyframe_approved</text>
  <rect x="440" y="205" width="620" height="280" rx="4" fill="#fafafa" stroke="#cbd5e1"/>
  <text x="450" y="228" class="t" font-weight="600">Credit estimate</text>
  <text x="450" y="252" class="ts">Job type: cine_motion_draft ▾</text>
  <text x="450" y="280" class="t" font-size="20" font-weight="700">credit_estimate: 48</text>
  <text x="450" y="300" class="ts">alert_threshold: 40 · needs_confirm: yes</text>
  <rect x="450" y="315" width="12" height="12" fill="#fff" stroke="#cbd5e1"/>
  <text x="470" y="326" class="ts">Xác nhận vượt ngưỡng budget</text>
  
  <rect x="450" y="345" width="180" height="32" rx="4" fill="#2563eb" stroke="#dc2626" stroke-width="2" stroke-dasharray="4 2"/>
  <text x="462" y="366" fill="#fff" font-size="11" font-weight="600">Enqueue draft motion</text>
  
  <rect x="640" y="345" width="180" height="32" rx="4" fill="#2563eb"/>
  <text x="652" y="366" fill="#fff" font-size="11" font-weight="600">Enqueue final motion</text>
  
  <text x="450" y="395" class="hl">▶ Draft → Runway · Final → Kling via Leonardo</text>

  <!-- Footer note -->
  <text x="200" y="628" class="ts">Wireframe mockup · Module 7 Video SOP · không phải screenshot production</text>
</svg>
